<svg width="15" height="15" viewBox="0 0 15 16" fill="none" xmlns="http://www.w3.org/2000/svg">
<g id="Left Circle 1">
<g id="Vector">
<path d="M7.3188 5.68716C7.51493 5.49277 7.51635 5.17619 7.32196 4.98006C7.12757 4.78393 6.81099 4.78252 6.61486 4.9769L5.65408 5.92914C5.29664 6.28339 4.99852 6.57885 4.78596 6.84353C4.56301 7.12114 4.39342 7.4129 4.34812 7.76837C4.33837 7.84484 4.3335 7.92177 4.3335 7.9987C4.3335 8.07563 4.33837 8.15256 4.34812 8.22903C4.39342 8.58449 4.56301 8.87625 4.78596 9.15387C4.99852 9.41855 5.29664 9.71401 5.6541 10.0683L6.61486 11.0205C6.81099 11.2149 7.12757 11.2135 7.32196 11.0173C7.51635 10.8212 7.51493 10.5046 7.3188 10.3102L6.37855 9.37834C5.99529 8.99848 5.73838 8.74279 5.56565 8.52771C5.55773 8.51784 5.55008 8.50817 5.54269 8.4987H10.1668C10.443 8.4987 10.6668 8.27484 10.6668 7.9987C10.6668 7.72256 10.443 7.4987 10.1668 7.4987H5.54269C5.55008 7.48922 5.55773 7.47955 5.56565 7.46969C5.73838 7.25461 5.99529 6.99892 6.37855 6.61906L7.3188 5.68716Z" fill="#E63946"/>
<path fill-rule="evenodd" clip-rule="evenodd" d="M7.50016 0.832031C3.54212 0.832031 0.333496 4.04066 0.333496 7.9987C0.333496 11.9567 3.54212 15.1654 7.50016 15.1654C11.4582 15.1654 14.6668 11.9567 14.6668 7.9987C14.6668 4.04066 11.4582 0.832031 7.50016 0.832031ZM1.3335 7.9987C1.3335 4.59294 4.09441 1.83203 7.50016 1.83203C10.9059 1.83203 13.6668 4.59294 13.6668 7.9987C13.6668 11.4045 10.9059 14.1654 7.50016 14.1654C4.09441 14.1654 1.3335 11.4045 1.3335 7.9987Z" fill="#E63946"/>
</g>
</g>
</svg>
