<svg width="15" height="15" viewBox="0 0 16 16" fill="none" xmlns="http://www.w3.org/2000/svg">
<g id="Right Circle 1">
<g id="Vector">
<path d="M8.88498 4.9769C8.68885 4.78251 8.37227 4.78393 8.17788 4.98006C7.98349 5.17619 7.9849 5.49277 8.18104 5.68716L9.12129 6.61906C9.50455 6.99892 9.76146 7.25461 9.93419 7.46969C9.94211 7.47955 9.94976 7.48922 9.95715 7.4987L5.33301 7.4987C5.05686 7.4987 4.83301 7.72256 4.83301 7.9987C4.83301 8.27484 5.05686 8.4987 5.33301 8.4987L9.95715 8.4987C9.94976 8.50817 9.94211 8.51784 9.93419 8.52771C9.76146 8.74279 9.50455 8.99848 9.12129 9.37834L8.18104 10.3102C7.9849 10.5046 7.98349 10.8212 8.17788 11.0173C8.37227 11.2135 8.68885 11.2149 8.88498 11.0205L9.84575 10.0683C10.2032 9.71401 10.5013 9.41855 10.7139 9.15387C10.9368 8.87626 11.1064 8.58449 11.1517 8.22903C11.1615 8.15256 11.1663 8.07563 11.1663 7.9987C11.1663 7.92176 11.1615 7.84483 11.1517 7.76837C11.1064 7.41291 10.9368 7.12114 10.7139 6.84353C10.5013 6.57885 10.2032 6.2834 9.84576 5.92915L8.88498 4.9769Z"/>
<path fill-rule="evenodd" clip-rule="evenodd" d="M7.99967 0.832031C4.04163 0.832031 0.833008 4.04066 0.833008 7.9987C0.833008 11.9567 4.04163 15.1654 7.99967 15.1654C11.9577 15.1654 15.1663 11.9567 15.1663 7.9987C15.1663 4.04066 11.9577 0.832031 7.99967 0.832031ZM1.83301 7.9987C1.83301 4.59294 4.59392 1.83203 7.99967 1.83203C11.4054 1.83203 14.1663 4.59294 14.1663 7.9987C14.1663 11.4045 11.4054 14.1654 7.99967 14.1654C4.59392 14.1654 1.83301 11.4045 1.83301 7.9987Z"/>
</g>
</g>
</svg>
