<svg width="16" height="16" viewBox="0 0 16 16" fill="none" xmlns="http://www.w3.org/2000/svg">
<g id="invoice">
<path id="Vector" d="M13.344 1.33325C12.6017 1.33325 12 3.12411 12 5.33325H13.344C13.9917 5.33325 14.3156 5.33325 14.5161 5.10962C14.7166 4.88598 14.6817 4.59147 14.6119 4.00246C14.4276 2.44754 13.9295 1.33325 13.344 1.33325Z" stroke="#1573FE"/>
<path id="Vector_2" d="M11.9999 5.36943V12.4305C11.9999 13.4383 11.9999 13.9421 11.6919 14.1405C11.1887 14.4647 10.4107 13.7849 10.0193 13.5381C9.69599 13.3342 9.53439 13.2323 9.35492 13.2264C9.16105 13.22 8.99652 13.3178 8.64719 13.5381L7.37325 14.3415C7.02959 14.5582 6.85779 14.6666 6.66659 14.6666C6.47539 14.6666 6.30356 14.5582 5.95992 14.3415L4.68601 13.5381C4.36269 13.3342 4.20103 13.2323 4.02161 13.2264C3.82773 13.22 3.66321 13.3178 3.31383 13.5381C2.92255 13.7849 2.1445 14.4647 1.64122 14.1405C1.33325 13.9421 1.33325 13.4383 1.33325 12.4305V5.36943C1.33325 3.46675 1.33325 2.51542 1.91904 1.92434C2.50483 1.33325 3.44763 1.33325 5.33325 1.33325H13.3333" stroke="#1573FE" stroke-linecap="round" stroke-linejoin="round"/>
<path id="Vector_3" d="M6.66659 5.33341C5.93021 5.33341 5.33325 5.78113 5.33325 6.33341C5.33325 6.88568 5.93021 7.33341 6.66659 7.33341C7.40299 7.33341 7.99992 7.78115 7.99992 8.33341C7.99992 8.88568 7.40299 9.33341 6.66659 9.33341M6.66659 5.33341C7.24712 5.33341 7.74099 5.61168 7.92405 6.00008M6.66659 5.33341V4.66675M6.66659 9.33341C6.08605 9.33341 5.59216 9.05515 5.40912 8.66675M6.66659 9.33341V10.0001" stroke="#1573FE" stroke-linecap="round"/>
</g>
</svg>
