<svg width="16" height="16" viewBox="0 0 16 16" fill="none" xmlns="http://www.w3.org/2000/svg">
<g id="money-send-circle">
<path id="Vector" d="M9.33325 1.46661C8.90245 1.37916 8.45652 1.33325 7.99992 1.33325C4.31802 1.33325 1.33325 4.31802 1.33325 7.99992C1.33325 11.6818 4.31802 14.6666 7.99992 14.6666C11.6818 14.6666 14.6666 11.6818 14.6666 7.99992C14.6666 7.54332 14.6207 7.09738 14.5333 6.66658" stroke="#1573FE" stroke-width="1.17635" stroke-linecap="round"/>
<path id="Vector_2" d="M8.00008 5.99992C7.26368 5.99992 6.66675 6.44763 6.66675 6.99992C6.66675 7.55219 7.26368 7.99992 8.00008 7.99992C8.73648 7.99992 9.33341 8.44765 9.33341 8.99992C9.33341 9.55219 8.73648 9.99992 8.00008 9.99992M8.00008 5.99992C8.58061 5.99992 9.07448 6.27819 9.25755 6.66659M8.00008 5.99992V5.33325M8.00008 9.99992C7.41955 9.99992 6.92568 9.72165 6.74261 9.33325M8.00008 9.99992V10.6666" stroke="#1573FE" stroke-width="1.17635" stroke-linecap="round"/>
<path id="Vector_3" d="M11.332 4.66805L14.116 1.88258M14.6654 4.32021L14.5866 2.25922C14.5866 1.77346 14.2966 1.4708 13.7682 1.43262L11.6855 1.33472" stroke="#1573FE" stroke-width="1.17635" stroke-linecap="round" stroke-linejoin="round"/>
</g>
</svg>
