<svg width="15" height="15" viewBox="0 0 16 16" fill="none" xmlns="http://www.w3.org/2000/svg">
<g clip-path="url(#clip0_3172_2144)">
<path fill-rule="evenodd" clip-rule="evenodd" d="M10.776 2.853C9.90218 0.163584 6.09738 0.163584 5.22354 2.853C4.96662 3.64372 4.22976 4.17908 3.39835 4.17908C0.570529 4.17908 -0.605221 7.79766 1.68253 9.45981C2.35516 9.9485 2.63661 10.8147 2.37969 11.6054C1.50585 14.2949 4.584 16.5313 6.87175 14.8691C7.54438 14.3804 8.45518 14.3804 9.12781 14.8691C11.4156 16.5313 14.4937 14.2949 13.6199 11.6054C13.363 10.8147 13.6444 9.9485 14.317 9.45981C16.6048 7.79766 15.429 4.17908 12.6012 4.17908C11.7698 4.17908 11.0329 3.64372 10.776 2.853ZM6.17459 3.16202C6.74909 1.39391 9.25048 1.39391 9.82497 3.16202C10.2158 4.36476 11.3366 5.17908 12.6012 5.17908C14.4603 5.17908 15.2333 7.55805 13.7292 8.65079C12.7061 9.39413 12.278 10.7117 12.6688 11.9145C13.2433 13.6826 11.2196 15.1529 9.7156 14.0601C8.69248 13.3168 7.30708 13.3168 6.28397 14.0601C4.77993 15.1529 2.75626 13.6826 3.33075 11.9145C3.72154 10.7117 3.29343 9.39413 2.27032 8.65079C0.766278 7.55805 1.53925 5.17908 3.39835 5.17908C4.66299 5.17908 5.7838 4.36476 6.17459 3.16202Z" stroke-width="0.5"/>
</g>
<defs>
<clipPath id="clip0_3172_2144">
<rect width="16" height="16" fill="white"/>
</clipPath>
</defs>
</svg>
