<svg width="16" height="16" viewBox="0 0 17 16" fill="none" xmlns="http://www.w3.org/2000/svg">
<path fill-rule="evenodd" clip-rule="evenodd" d="M8.5 3C7.16358 3 5.95523 3.54462 4.97427 4.20637C3.98795 4.87172 3.18145 5.68902 2.63951 6.31098L2.59481 6.36219C2.26856 6.73569 2 7.04314 2 7.5C2 7.95686 2.26856 8.26431 2.59481 8.63781L2.63951 8.68902C3.18145 9.31098 3.98795 10.1283 4.97427 10.7936C5.95523 11.4554 7.16358 12 8.5 12C9.83642 12 11.0448 11.4554 12.0257 10.7936C13.0121 10.1283 13.8185 9.31098 14.3605 8.68902L14.4052 8.63781C14.7314 8.26431 15 7.95686 15 7.5C15 7.04314 14.7314 6.73569 14.4052 6.36219L14.3605 6.31098C13.8185 5.68902 13.0121 4.87172 12.0257 4.20637C11.0448 3.54462 9.83642 3 8.5 3ZM3.40012 6.76086C3.91776 6.16679 4.6695 5.40899 5.56744 4.80325C6.47074 4.19389 7.47269 3.77143 8.5 3.77143C9.52731 3.77143 10.5293 4.19389 11.4326 4.80325C12.3305 5.40899 13.0822 6.16679 13.5999 6.76086C13.9894 7.20785 14.0637 7.31562 14.0637 7.5C14.0637 7.68438 13.9894 7.79215 13.5999 8.23914C13.0822 8.83321 12.3305 9.59101 11.4326 10.1968C10.5293 10.8061 9.52731 11.2286 8.5 11.2286C7.47269 11.2286 6.47074 10.8061 5.56744 10.1968C4.6695 9.59101 3.91776 8.83321 3.40012 8.23914C3.01064 7.79215 2.93632 7.68438 2.93632 7.5C2.93632 7.31562 3.01064 7.20785 3.40012 6.76086Z" stroke-width="0.2"/>
<path fill-rule="evenodd" clip-rule="evenodd" d="M8.5 5C7.11929 5 6 6.11929 6 7.5C6 8.88071 7.11929 10 8.5 10C9.88071 10 11 8.88071 11 7.5C11 6.11929 9.88071 5 8.5 5ZM7 7.5C7 6.67157 7.67157 6 8.5 6C9.32843 6 10 6.67157 10 7.5C10 8.32843 9.32843 9 8.5 9C7.67157 9 7 8.32843 7 7.5Z" />
</svg>
