<?xml version="1.0" encoding="UTF-8"?>
<svg xmlns="http://www.w3.org/2000/svg" xmlns:xlink="http://www.w3.org/1999/xlink" width="24px" height="24px" viewBox="0 0 24 24" version="1.1">
<g id="surface1">
<path style=" stroke:none;fill-rule:nonzero;fill:rgb(15.294118%,50.980392%,98.431373%);fill-opacity:1;" d="M 11.785156 -0.0234375 C 11.984375 -0.0234375 12.179688 -0.0273438 12.378906 -0.0273438 C 15.585938 -0.0429688 18.523438 1.429688 20.78125 3.65625 C 22.113281 5.078125 23.054688 6.796875 23.625 8.65625 C 23.644531 8.71875 23.664062 8.78125 23.683594 8.84375 C 23.96875 9.816406 24.027344 10.777344 24.023438 11.78125 C 24.023438 11.980469 24.027344 12.175781 24.027344 12.371094 C 24.035156 13.570312 23.863281 14.691406 23.476562 15.828125 C 23.433594 15.953125 23.433594 15.953125 23.390625 16.074219 C 22.316406 19.121094 20.023438 21.527344 17.148438 22.945312 C 16.445312 23.28125 16.445312 23.28125 16.160156 23.28125 C 16.132812 23.332031 16.105469 23.386719 16.078125 23.441406 C 15.074219 23.8125 13.917969 24.011719 12.847656 24.015625 C 12.785156 24.015625 12.722656 24.015625 12.65625 24.019531 C 12.523438 24.019531 12.386719 24.019531 12.253906 24.019531 C 12.054688 24.019531 11.851562 24.023438 11.652344 24.023438 C 10.445312 24.03125 9.320312 23.867188 8.171875 23.476562 C 8.046875 23.433594 8.046875 23.433594 7.925781 23.390625 C 6.679688 22.953125 5.609375 22.3125 4.558594 21.519531 C 4.414062 21.417969 4.269531 21.3125 4.125 21.210938 C 3.761719 20.945312 3.480469 20.585938 3.1875 20.246094 C 3.078125 20.125 2.964844 20.007812 2.847656 19.890625 C 2.625 19.664062 2.4375 19.421875 2.253906 19.164062 C 2.21875 19.117188 2.1875 19.066406 2.148438 19.015625 C 1.167969 17.601562 0.535156 16.078125 0.148438 14.40625 C 0.136719 14.355469 0.125 14.308594 0.113281 14.257812 C 0.0234375 13.785156 -0.0117188 13.324219 -0.015625 12.84375 C -0.015625 12.78125 -0.015625 12.71875 -0.0195312 12.652344 C -0.0195312 12.519531 -0.0195312 12.382812 -0.0195312 12.25 C -0.0195312 12.046875 -0.0234375 11.847656 -0.0234375 11.644531 C -0.03125 10.800781 0.046875 10.023438 0.238281 9.199219 C 0.265625 9.097656 0.265625 9.097656 0.289062 8.992188 C 1.054688 5.941406 3.066406 3.265625 5.757812 1.648438 C 6.679688 1.109375 7.625 0.695312 8.644531 0.378906 C 8.707031 0.359375 8.769531 0.339844 8.835938 0.320312 C 9.8125 0.03125 10.777344 -0.0273438 11.785156 -0.0234375 Z M 11.785156 -0.0234375 "/>
<path style=" stroke:none;fill-rule:nonzero;fill:rgb(98.823529%,99.215686%,99.607843%);fill-opacity:1;" d="M 5.785156 11.160156 C 6.113281 11.222656 6.289062 11.441406 6.507812 11.671875 C 6.582031 11.746094 6.582031 11.746094 6.65625 11.820312 C 6.808594 11.976562 6.957031 12.132812 7.109375 12.289062 C 7.261719 12.445312 7.414062 12.601562 7.5625 12.753906 C 7.65625 12.851562 7.75 12.945312 7.84375 13.042969 C 8.070312 13.273438 8.296875 13.5 8.53125 13.71875 C 8.578125 13.757812 8.621094 13.800781 8.664062 13.839844 C 8.796875 13.933594 8.796875 13.933594 8.960938 13.910156 C 9.148438 13.828125 9.25 13.734375 9.390625 13.589844 C 9.445312 13.535156 9.496094 13.484375 9.546875 13.429688 C 9.628906 13.34375 9.628906 13.34375 9.714844 13.253906 C 9.832031 13.132812 9.949219 13.015625 10.066406 12.894531 C 10.25 12.703125 10.4375 12.515625 10.621094 12.324219 C 10.796875 12.140625 10.976562 11.957031 11.15625 11.773438 C 11.210938 11.71875 11.265625 11.660156 11.320312 11.601562 C 11.371094 11.546875 11.425781 11.496094 11.476562 11.441406 C 11.523438 11.394531 11.566406 11.347656 11.613281 11.300781 C 11.808594 11.167969 11.929688 11.175781 12.160156 11.199219 C 12.308594 11.292969 12.308594 11.292969 12.445312 11.429688 C 12.5 11.480469 12.550781 11.53125 12.605469 11.582031 C 12.691406 11.664062 12.691406 11.664062 12.773438 11.75 C 12.832031 11.804688 12.890625 11.863281 12.953125 11.921875 C 13.28125 12.238281 13.601562 12.5625 13.917969 12.886719 C 13.984375 12.953125 14.046875 13.019531 14.113281 13.089844 C 14.238281 13.21875 14.363281 13.347656 14.488281 13.480469 C 14.546875 13.539062 14.601562 13.597656 14.660156 13.65625 C 14.738281 13.738281 14.738281 13.738281 14.8125 13.816406 C 14.953125 13.9375 14.953125 13.9375 15.125 13.90625 C 15.371094 13.800781 15.519531 13.621094 15.699219 13.429688 C 15.945312 13.175781 16.1875 12.925781 16.460938 12.699219 C 16.683594 12.511719 16.890625 12.308594 17.09375 12.097656 C 17.144531 12.042969 17.199219 11.988281 17.253906 11.933594 C 17.359375 11.824219 17.464844 11.710938 17.570312 11.597656 C 17.621094 11.546875 17.667969 11.496094 17.722656 11.441406 C 17.765625 11.394531 17.808594 11.347656 17.855469 11.300781 C 18.050781 11.164062 18.164062 11.167969 18.398438 11.199219 C 18.542969 11.289062 18.542969 11.289062 18.667969 11.417969 C 18.714844 11.460938 18.761719 11.507812 18.808594 11.554688 C 18.855469 11.601562 18.902344 11.648438 18.949219 11.699219 C 19 11.746094 19.046875 11.792969 19.097656 11.84375 C 19.140625 11.886719 19.1875 11.933594 19.234375 11.980469 C 19.277344 12.023438 19.316406 12.066406 19.359375 12.109375 C 19.441406 12.238281 19.441406 12.238281 19.417969 12.394531 C 19.324219 12.667969 19.105469 12.84375 18.902344 13.042969 C 18.855469 13.089844 18.808594 13.136719 18.761719 13.183594 C 18.664062 13.28125 18.566406 13.378906 18.464844 13.476562 C 18.316406 13.625 18.167969 13.769531 18.019531 13.917969 C 17.59375 14.34375 17.164062 14.761719 16.703125 15.152344 C 16.539062 15.300781 16.386719 15.457031 16.230469 15.617188 C 16.175781 15.671875 16.125 15.730469 16.066406 15.789062 C 15.957031 15.90625 15.847656 16.023438 15.738281 16.140625 C 15.683594 16.195312 15.632812 16.25 15.578125 16.308594 C 15.527344 16.359375 15.480469 16.410156 15.433594 16.460938 C 15.28125 16.558594 15.28125 16.558594 15.070312 16.542969 C 14.839844 16.464844 14.738281 16.371094 14.574219 16.191406 C 14.375 15.976562 14.171875 15.777344 13.949219 15.585938 C 13.546875 15.238281 13.175781 14.863281 12.800781 14.484375 C 12.730469 14.414062 12.660156 14.34375 12.589844 14.273438 C 12.417969 14.101562 12.25 13.929688 12.078125 13.761719 C 11.847656 13.863281 11.6875 13.976562 11.507812 14.15625 C 11.460938 14.203125 11.414062 14.25 11.367188 14.296875 C 11.292969 14.375 11.292969 14.375 11.214844 14.453125 C 11.164062 14.503906 11.109375 14.558594 11.058594 14.609375 C 10.890625 14.777344 10.726562 14.945312 10.558594 15.113281 C 10.394531 15.28125 10.230469 15.449219 10.0625 15.617188 C 9.960938 15.722656 9.855469 15.828125 9.753906 15.929688 C 9.234375 16.453125 9.234375 16.453125 9.039062 16.558594 C 8.695312 16.550781 8.535156 16.414062 8.300781 16.171875 C 8.238281 16.109375 8.175781 16.046875 8.113281 15.980469 C 8.050781 15.914062 7.984375 15.847656 7.921875 15.78125 C 7.855469 15.714844 7.792969 15.648438 7.726562 15.582031 C 7.550781 15.402344 7.375 15.222656 7.199219 15.039062 C 6.960938 14.796875 6.722656 14.566406 6.464844 14.34375 C 6.042969 13.964844 5.632812 13.574219 5.226562 13.179688 C 5.160156 13.117188 5.09375 13.054688 5.023438 12.992188 C 4.964844 12.929688 4.902344 12.871094 4.839844 12.808594 C 4.785156 12.753906 4.726562 12.703125 4.671875 12.644531 C 4.558594 12.480469 4.558594 12.480469 4.570312 12.273438 C 4.675781 11.984375 4.875 11.8125 5.101562 11.613281 C 5.140625 11.574219 5.183594 11.535156 5.226562 11.492188 C 5.402344 11.332031 5.546875 11.210938 5.785156 11.160156 Z M 5.785156 11.160156 "/>
<path style=" stroke:none;fill-rule:nonzero;fill:rgb(98.431373%,99.215686%,99.607843%);fill-opacity:1;" d="M 15.601562 8.558594 C 15.941406 8.832031 16.253906 9.128906 16.558594 9.441406 C 16.640625 9.519531 16.640625 9.519531 16.71875 9.601562 C 16.753906 9.785156 16.753906 9.785156 16.71875 10 C 16.554688 10.207031 16.554688 10.207031 16.335938 10.414062 C 16.261719 10.484375 16.191406 10.550781 16.117188 10.625 C 15.738281 10.960938 15.738281 10.960938 15.53125 10.953125 C 15.28125 10.847656 15.113281 10.679688 14.910156 10.5 C 13.875 9.609375 12.714844 9.34375 11.371094 9.421875 C 10.285156 9.527344 9.421875 10.109375 8.71875 10.910156 C 8.664062 10.953125 8.613281 10.996094 8.558594 11.039062 C 8.171875 10.996094 7.960938 10.722656 7.695312 10.460938 C 7.621094 10.390625 7.621094 10.390625 7.546875 10.320312 C 7.203125 9.980469 7.203125 9.980469 7.1875 9.710938 C 7.65625 8.761719 9.058594 8.066406 10.019531 7.742188 C 10.09375 7.71875 10.164062 7.699219 10.238281 7.679688 C 10.289062 7.667969 10.339844 7.652344 10.390625 7.636719 C 12.136719 7.199219 14.121094 7.527344 15.601562 8.558594 Z M 15.601562 8.558594 "/>
<path style=" stroke:none;fill-rule:nonzero;fill:rgb(28.235294%,58.039216%,98.039216%);fill-opacity:1;" d="M 1.679688 5.761719 C 1.734375 5.785156 1.785156 5.8125 1.839844 5.839844 C 1.796875 5.921875 1.757812 6 1.714844 6.082031 C 1.195312 7.09375 0.800781 8.109375 0.480469 9.199219 C 0.449219 9.296875 0.417969 9.394531 0.386719 9.496094 C 0.3125 9.796875 0.285156 10.085938 0.265625 10.398438 C 0.257812 10.449219 0.25 10.503906 0.238281 10.558594 C 0.160156 10.597656 0.160156 10.597656 0.078125 10.640625 C -0.0390625 9.003906 0.785156 7.214844 1.601562 5.839844 C 1.625 5.8125 1.652344 5.789062 1.679688 5.761719 Z M 1.679688 5.761719 "/>
<path style=" stroke:none;fill-rule:nonzero;fill:rgb(30.196078%,58.823529%,98.039216%);fill-opacity:1;" d="M 0.078125 13.359375 C 0.132812 13.359375 0.1875 13.359375 0.238281 13.359375 C 0.253906 13.453125 0.265625 13.542969 0.28125 13.636719 C 0.386719 14.328125 0.511719 14.980469 0.738281 15.640625 C 0.800781 15.839844 0.800781 15.839844 0.800781 16.078125 C 0.746094 16.078125 0.695312 16.078125 0.640625 16.078125 C 0.507812 15.765625 0.410156 15.453125 0.316406 15.125 C 0.289062 15.03125 0.261719 14.933594 0.230469 14.835938 C 0.132812 14.453125 0.0703125 14.089844 0.0742188 13.691406 C 0.0742188 13.628906 0.078125 13.566406 0.078125 13.5 C 0.078125 13.453125 0.078125 13.40625 0.078125 13.359375 Z M 0.078125 13.359375 "/>
<path style=" stroke:none;fill-rule:nonzero;fill:rgb(5.882353%,47.058824%,99.215686%);fill-opacity:1;" d="M 20.71875 20.078125 C 20.746094 20.160156 20.773438 20.238281 20.800781 20.320312 C 20.613281 20.503906 20.429688 20.691406 20.238281 20.878906 C 20.160156 20.855469 20.082031 20.828125 20 20.800781 C 20.238281 20.5625 20.476562 20.324219 20.71875 20.078125 Z M 20.71875 20.078125 "/>
<path style=" stroke:none;fill-rule:nonzero;fill:rgb(24.705882%,56.470588%,98.431373%);fill-opacity:1;" d="M 1.28125 17.441406 C 1.519531 17.519531 1.519531 17.519531 1.613281 17.683594 C 1.640625 17.75 1.667969 17.816406 1.695312 17.886719 C 1.722656 17.949219 1.75 18.015625 1.777344 18.085938 C 1.796875 18.136719 1.820312 18.1875 1.839844 18.238281 C 1.503906 18.097656 1.421875 17.9375 1.28125 17.601562 C 1.28125 17.546875 1.28125 17.496094 1.28125 17.441406 Z M 1.28125 17.441406 "/>
<path style=" stroke:none;fill-rule:nonzero;fill:rgb(20%,54.117647%,98.823529%);fill-opacity:1;" d="M 3.28125 20.160156 C 3.371094 20.234375 3.464844 20.308594 3.554688 20.386719 C 3.605469 20.425781 3.65625 20.46875 3.710938 20.511719 C 3.839844 20.640625 3.839844 20.640625 3.921875 20.878906 C 3.652344 20.765625 3.46875 20.625 3.28125 20.398438 C 3.28125 20.320312 3.28125 20.242188 3.28125 20.160156 Z M 3.28125 20.160156 "/>
</g>
</svg>
