<svg xmlns="http://www.w3.org/2000/svg" xmlns:xlink="http://www.w3.org/1999/xlink" viewBox="0 0 431.24 65.67"><defs><style>.cls-1{fill:url(#linear-gradient);}.cls-2{fill:#1573fe;}.cls-3{fill:#fff;}</style><linearGradient id="linear-gradient" x1="30.62" y1="32.84" x2="75.66" y2="32.84" gradientUnits="userSpaceOnUse"><stop offset="0" stop-color="#1573fe"/><stop offset="1" stop-color="#00d39e"/></linearGradient></defs><title>TreasureEase main logo</title><g id="Layer_2" data-name="Layer 2"><g id="Layer_1-2" data-name="Layer 1"><path class="cls-1" d="M64.38,65.67H30.62V50.92H62.09V14.75H30.62V0H64.38c6.33,0,11.28,6.12,11.28,13.93V51.74C75.66,59.55,70.71,65.67,64.38,65.67Z"/><polygon class="cls-2" points="32.84 20.16 32.84 47.26 14.75 47.26 14.75 65.67 0 65.67 0 0 14.75 0 14.75 20.16 32.84 20.16"/><path class="cls-3" d="M109.18,28.28v8.94h0V49a2.9,2.9,0,0,0,.88,2.13,2.87,2.87,0,0,0,2.08.88h4.21V61h-4.21a11.75,11.75,0,0,1-4.61-.92,11.37,11.37,0,0,1-3.78-2.57,12,12,0,0,1-2.53-3.78,11.48,11.48,0,0,1-.92-4.64V4.69h8.88V12h70.17v8.13H109.19v8.12Z"/><path class="cls-3" d="M132.45,36.27a11.21,11.21,0,0,1,10.67-6.38v6.38c-6.21-.35-10.15,3.3-10.67,8.58V61h-6.67V30.12h6.67Z"/><path class="cls-3" d="M175.77,48.1H152.46A9.39,9.39,0,0,0,162,55.81a12,12,0,0,0,8.7-3.59L174.27,56a16.8,16.8,0,0,1-12.76,5.23c-9.52,0-15.78-6.33-15.78-15.61s6.44-15.66,15.6-15.71C172.18,29.89,176.59,37,175.77,48.1ZM170,43.23c-.23-5-3.53-8-8.58-8-4.87,0-8.29,3.08-9,8Z"/><path class="cls-3" d="M201.24,57.2c-2.21,2.73-5.75,4.06-10.21,4.06-6.67,0-10.85-4.11-10.85-9.57,0-5.62,4.24-9.22,11.66-9.28h9.34v-.92c0-3.89-2.5-6.21-7.37-6.21a16.21,16.21,0,0,0-9.1,3.13L182,33.77c4.29-2.55,7.42-3.88,13.28-3.88,8,0,12.41,4.06,12.47,10.84L207.79,61h-6.55Zm-.06-7.07V47.29h-8.35c-4.35,0-6.38,1.16-6.38,4.11,0,2.79,2.26,4.58,6,4.58C197.18,56,200.83,53.49,201.18,50.13Z"/><path class="cls-3" d="M236.73,33l-2.43,4.93a18.19,18.19,0,0,0-8.88-2.73c-2.61,0-4.52.87-4.52,3.08,0,5.68,16.41,2.61,16.35,13.8,0,6.32-5.62,9.17-11.83,9.17-4.52,0-9.34-1.51-12.41-4.3l2.38-4.75A16.79,16.79,0,0,0,225.71,56c2.84,0,5-1,5-3.3,0-6.32-16.24-2.78-16.18-13.92,0-6.26,5.45-8.93,11.36-8.93A19.5,19.5,0,0,1,236.73,33Z"/><path class="cls-3" d="M272,61h-6.67v-6c-2.08,4.29-6,6.21-11,6.27-7.07,0-11.31-4.53-11.31-11.89V30.12h6.67V47.46c0,4.64,2.73,7.48,7.2,7.48,5.33-.11,8.46-4.23,8.46-9.63V30.12H272Z"/><path class="cls-3" d="M288.52,36.27c2.09-4.18,5.8-6.38,10.68-6.38v6.38c-6.21-.35-10.15,3.3-10.68,8.58V61h-6.67V30.12h6.67Z"/><path class="cls-3" d="M312,26.52v11h19.83v6.15H312v11.2h22.85V61h-29.7V20.37h29v6.15Z"/><path class="cls-3" d="M361.26,57.2c-2.21,2.73-5.75,4.06-10.21,4.06-6.67,0-10.85-4.11-10.85-9.57,0-5.62,4.24-9.22,11.66-9.28h9.34v-.92c0-3.89-2.5-6.21-7.37-6.21a16.21,16.21,0,0,0-9.1,3.13L342,33.77c4.29-2.55,7.42-3.88,13.28-3.88,8,0,12.41,4.06,12.47,10.84L367.81,61h-6.55Zm-.06-7.07V47.29h-8.35c-4.35,0-6.38,1.16-6.38,4.11,0,2.79,2.26,4.58,6,4.58C357.2,56,360.85,53.49,361.2,50.13Z"/><path class="cls-3" d="M396.75,33l-2.43,4.93a18.19,18.19,0,0,0-8.88-2.73c-2.61,0-4.52.87-4.52,3.08,0,5.68,16.41,2.61,16.35,13.8,0,6.32-5.62,9.17-11.83,9.17-4.52,0-9.34-1.51-12.41-4.3l2.38-4.75A16.79,16.79,0,0,0,385.73,56c2.84,0,5-1,5-3.3,0-6.32-16.24-2.78-16.18-13.92,0-6.26,5.45-8.93,11.36-8.93A19.5,19.5,0,0,1,396.75,33Z"/><path class="cls-3" d="M431.14,48.1H407.83a9.39,9.39,0,0,0,9.57,7.71,12,12,0,0,0,8.7-3.59L429.64,56a16.8,16.8,0,0,1-12.76,5.23c-9.51,0-15.78-6.33-15.78-15.61s6.44-15.66,15.6-15.71C427.55,29.89,432,37,431.14,48.1Zm-5.8-4.87c-.23-5-3.53-8-8.58-8-4.87,0-8.29,3.08-9.05,8Z"/></g></g></svg>